{"asset":{"version":"2.0","generator":"pv2gltf","copyright":""},"samplers":[{"magFilter":9729,"minFilter":9986,"wrapS":10497,"wrapT":10497}],"images":[{"uri":"MMSEV_Color_v2s.png"}],"textures":[{"sampler":0,"source":0}],"materials":[{"name":"material_0","pbrMetallicRoughness":{"baseColorFactor":[0.800000011920929,0.800000011920929,0.800000011920929,1.0],"baseColorTexture":{"index":0,"texCoord":0},"metallicFactor":0.5,"roughnessFactor":0.5},"doubleSided":true}],"buffers":[{"uri":"MMSEV_2.bin","byteLength":14372032}],"bufferViews":[{"buffer":0,"byteOffset":0,"byteLength":1572864,"byteStride":12,"target":34962},{"buffer":0,"byteOffset":1572864,"byteLength":524288,"byteStride":8,"target":34962},{"buffer":0,"byteOffset":2097152,"byteLength":357764,"target":34963},{"buffer":0,"byteOffset":2454916,"byteLength":1572840,"byteStride":12,"target":34962},{"buffer":0,"byteOffset":4027756,"byteLength":524280,"byteStride":8,"target":34962},{"buffer":0,"byteOffset":4552036,"byteLength":484280,"target":34963},{"buffer":0,"byteOffset":5036316,"byteLength":1572864,"byteStride":12,"target":34962},{"buffer":0,"byteOffset":6609180,"byteLength":524288,"byteStride":8,"target":34962},{"buffer":0,"byteOffset":7133468,"byteLength":481940,"target":34963},{"buffer":0,"byteOffset":7615408,"byteLength":1572840,"byteStride":12,"target":34962},{"buffer":0,"byteOffset":9188248,"byteLength":524280,"byteStride":8,"target":34962},{"buffer":0,"byteOffset":9712528,"byteLength":452664,"target":34963},{"buffer":0,"byteOffset":10165192,"byteLength":1572864,"byteStride":12,"target":34962},{"buffer":0,"byteOffset":11738056,"byteLength":524288,"byteStride":8,"target":34962},{"buffer":0,"byteOffset":12262344,"byteLength":426216,"target":34963},{"buffer":0,"byteOffset":12688560,"byteLength":1056192,"byteStride":12,"target":34962},{"buffer":0,"byteOffset":13744752,"byteLength":352064,"byteStride":8,"target":34962},{"buffer":0,"byteOffset":14096816,"byteLength":275216,"target":34963}],"accessors":[{"bufferView":0,"byteOffset":0,"componentType":5126,"count":65536,"type":"VEC3","min":[-2.019200086593628,-2.2421300411224367,-3.3548901081085207],"max":[2.019200086593628,1.7264200448989869,2.554610013961792]},{"bufferView":0,"byteOffset":786432,"componentType":5126,"count":65536,"type":"VEC3"},{"bufferView":1,"byteOffset":0,"componentType":5126,"count":65536,"type":"VEC2"},{"bufferView":2,"byteOffset":0,"componentType":5123,"count":178881,"type":"SCALAR"},{"bufferView":3,"byteOffset":0,"componentType":5126,"count":65535,"type":"VEC3","min":[-0.525173008441925,-2.2421300411224367,-2.9529099464416506],"max":[2.019200086593628,0.9629740118980408,1.6767499446868897]},{"bufferView":3,"byteOffset":786420,"componentType":5126,"count":65535,"type":"VEC3"},{"bufferView":4,"byteOffset":0,"componentType":5126,"count":65535,"type":"VEC2"},{"bufferView":5,"byteOffset":0,"componentType":5123,"count":242139,"type":"SCALAR"},{"bufferView":6,"byteOffset":0,"componentType":5126,"count":65536,"type":"VEC3","min":[-2.019200086593628,-2.2421300411224367,-2.9529099464416506],"max":[1.9247900247573853,0.9629740118980408,1.7423700094223023]},{"bufferView":6,"byteOffset":786432,"componentType":5126,"count":65536,"type":"VEC3"},{"bufferView":7,"byteOffset":0,"componentType":5126,"count":65536,"type":"VEC2"},{"bufferView":8,"byteOffset":0,"componentType":5123,"count":240969,"type":"SCALAR"},{"bufferView":9,"byteOffset":0,"componentType":5126,"count":65535,"type":"VEC3","min":[-2.019200086593628,-2.2421300411224367,-2.9529099464416506],"max":[0.9721459746360779,-0.6947910189628601,1.0899200439453126]},{"bufferView":9,"byteOffset":786420,"componentType":5126,"count":65535,"type":"VEC3"},{"bufferView":10,"byteOffset":0,"componentType":5126,"count":65535,"type":"VEC2"},{"bufferView":11,"byteOffset":0,"componentType":5123,"count":226332,"type":"SCALAR"},{"bufferView":12,"byteOffset":0,"componentType":5126,"count":65536,"type":"VEC3","min":[-2.0099101066589357,-1.961400032043457,-3.3548901081085207],"max":[2.0099101066589357,1.7264200448989869,2.554610013961792]},{"bufferView":12,"byteOffset":786432,"componentType":5126,"count":65536,"type":"VEC3"},{"bufferView":13,"byteOffset":0,"componentType":5126,"count":65536,"type":"VEC2"},{"bufferView":14,"byteOffset":0,"componentType":5123,"count":213108,"type":"SCALAR"},{"bufferView":15,"byteOffset":0,"componentType":5126,"count":44008,"type":"VEC3","min":[-1.9780299663543702,-2.0589399337768556,-3.3543999195098879],"max":[1.9780299663543702,1.7264200448989869,2.5551300048828127]},{"bufferView":15,"byteOffset":528096,"componentType":5126,"count":44008,"type":"VEC3"},{"bufferView":16,"byteOffset":0,"componentType":5126,"count":44008,"type":"VEC2"},{"bufferView":17,"byteOffset":0,"componentType":5123,"count":137607,"type":"SCALAR"}],"meshes":[{"name":"MMSEV","primitives":[{"attributes":{"NORMAL":1,"POSITION":0,"TEXCOORD_0":2},"indices":3,"mode":4,"material":0},{"attributes":{"NORMAL":5,"POSITION":4,"TEXCOORD_0":6},"indices":7,"mode":4,"material":0},{"attributes":{"NORMAL":9,"POSITION":8,"TEXCOORD_0":10},"indices":11,"mode":4,"material":0},{"attributes":{"NORMAL":13,"POSITION":12,"TEXCOORD_0":14},"indices":15,"mode":4,"material":0},{"attributes":{"NORMAL":17,"POSITION":16,"TEXCOORD_0":18},"indices":19,"mode":4,"material":0},{"attributes":{"NORMAL":21,"POSITION":20,"TEXCOORD_0":22},"indices":23,"mode":4,"material":0}]}],"nodes":[{"name":"MMSEV","mesh":0},{"name":"MMSEV","children":[0]}],"scenes":[{"nodes":[1]}],"scene":0}