# Blender v2.79 (sub 0) OBJ File: 'wheel_wedge.blend'
# www.blender.org
mtllib wheel_wedge.mtl
o Cube
v 2.290000 -1.000000 -2.323471
v 2.290000 -1.000000 2.323472
v -2.290000 -1.000000 2.323471
v -2.289999 -1.000000 -2.323472
v 2.290001 1.000000 -2.323470
v -2.287653 0.196258 -1.307593
v 2.292348 0.196258 -1.307592
v -2.290000 1.000000 -2.323472
v 2.290001 1.000000 -2.323470
v 2.290000 -1.000000 2.323472
v -2.290000 -1.000000 2.323471
v -2.290000 1.000000 -2.323472
v 2.290001 -0.038567 -1.101633
v -2.290000 -0.038567 -1.101634
v 2.290001 -0.235325 -0.913630
v -2.290000 -0.235325 -0.913631
v -2.290000 -0.445546 -0.664558
v 2.290001 -0.445546 -0.664556
v -2.290000 -0.661930 -0.371107
v 2.290001 -0.661930 -0.371106
v -2.290000 -0.805912 -0.078807
v 2.290001 -0.805912 -0.078806
v -2.290000 -0.865448 0.231523
v 2.290001 -0.865448 0.231524
v -2.290000 -0.922338 0.530203
v 2.317860 -0.913800 0.510636
v -2.290000 -0.964426 0.814401
v 2.290001 -0.964426 0.814402
v -2.290000 -0.980022 1.167703
v 2.290001 -0.980022 1.167703
v 2.290000 -1.000000 0.036479
v -2.290000 -1.000000 0.036478
v 2.290000 -1.000000 1.179975
v -2.290000 -1.000000 1.179975
v 2.290001 -0.964426 0.814402
v -2.290000 -0.964426 0.814401
v -2.254743 0.414596 -1.409332
v 2.325258 0.414596 -1.409331
v 2.318317 0.703468 -1.544531
v -2.261684 0.703468 -1.544532
vn 0.0000 -1.0000 -0.0000
vn -1.0000 0.0066 0.0067
vn 0.0000 0.0000 1.0000
vn 0.9999 -0.0096 -0.0072
vn -0.0000 0.4224 0.9064
vn 0.0000 0.0000 -1.0000
vn -0.0000 0.9999 0.0173
vn -0.0000 0.6594 0.7518
vn -0.0000 0.6908 0.7230
vn -0.0000 0.7642 0.6450
vn -0.0000 0.8048 0.5935
vn -0.0000 0.8971 0.4419
vn -0.0000 0.9821 0.1884
vn -0.0005 0.9838 0.1792
vn -0.0006 0.9878 0.1557
vn -0.0000 0.9990 0.0441
vn -0.0000 0.4239 0.9057
vn -0.0000 0.9346 0.3558
usemtl Material.002
s off
f 33//1 2//1 3//1 34//1
f 3//2 11//2 29//2 36//2 27//2 25//2 23//2 21//2 19//2 17//2 16//2 14//2 6//2 37//2 40//2 12//2 8//2 4//2 32//2 34//2
f 5//3 8//3 12//3 9//3
f 1//4 5//4 9//4 39//4 38//4 7//4 13//4 15//4 18//4 20//4 22//4 24//4 26//4 28//4 35//4 30//4 10//4 2//4 33//4 31//4
f 38//5 37//5 6//5 7//5
f 5//6 1//6 4//6 8//6
f 30//7 29//7 11//7 10//7
f 2//3 10//3 11//3 3//3
f 7//8 6//8 14//8 13//8
f 13//9 14//9 16//9 15//9
f 15//10 16//10 17//10 18//10
f 18//11 17//11 19//11 20//11
f 20//12 19//12 21//12 22//12
f 22//13 21//13 23//13 24//13
f 24//14 23//14 25//14 26//14
f 26//15 25//15 27//15 28//15
f 35//16 36//16 29//16 30//16
f 1//1 31//1 32//1 4//1
f 31//1 33//1 34//1 32//1
f 28//3 27//3 36//3 35//3
f 39//17 40//17 37//17 38//17
f 9//18 12//18 40//18 39//18
